<svg xmlns="http://www.w3.org/2000/svg" viewBox="0 0 160 160">
  <ellipse cx="80" cy="138" rx="44" ry="12" fill="#d7b8a0" opacity=".28"/>
  <path d="M99 30c16-3 27 10 29 25-11 1-24-4-31-12-5-6-5-9 2-13Z" fill="#80ca80"/>
  <path d="M71 29c-16-2-28 11-30 26 13 1 27-5 35-14 4-5 4-9-5-12Z" fill="#65b56b"/>
  <path d="M80 42c32 0 45 36 10 89-4 6-16 6-20 0C35 78 48 42 80 42Z" fill="#ffa24d"/>
  <path d="M63 78c11 7 23 7 34 0" stroke="#e47d2d" stroke-width="6" stroke-linecap="round"/>
  <path d="M59 96c14 8 28 8 42 0" stroke="#e47d2d" stroke-width="6" stroke-linecap="round"/>
</svg>
