<svg xmlns="http://www.w3.org/2000/svg" viewBox="0 0 160 160">
  <ellipse cx="80" cy="138" rx="44" ry="12" fill="#d7b8a0" opacity=".28"/>
  <path d="M80 36c20-18 52-10 58 26 7 46-21 76-58 76S15 108 22 62c6-36 38-44 58-26Z" fill="#ff7b7b"/>
  <path d="M80 36c-8 1-17-3-21-12 14-11 34-9 44 5-6 4-15 7-23 7Z" fill="#8c4e37"/>
  <path d="M86 18c18-8 31-1 37 10-17 10-34 10-48 0 3-5 7-8 11-10Z" fill="#8fd48f"/>
  <circle cx="61" cy="74" r="8" fill="#ffd8d8" opacity=".6"/>
  <circle cx="101" cy="64" r="10" fill="#fff3f3" opacity=".55"/>
</svg>
